<svg xmlns="http://www.w3.org/2000/svg" width="20" height="20" viewBox="0 0 20 20">
  <g fill="#339966" fill-rule="evenodd" transform="translate(-1)">
    <polygon points="8.995 0 6.995 2 6.995 5.998 3 5.998 1 7.998 6.995 7.998 8.995 8 9 5.998"/>
    <polygon points="20.985 12.003 18.985 14.003 18.985 18.001 14.99 18.001 12.99 20.001 18.985 20.001 20.985 20.003 20.99 18.001" transform="rotate(-180 16.99 16.003)"/>
    <polygon points="8.986 11.986 6.986 13.986 6.986 17.984 2.991 17.984 .991 19.984 6.986 19.984 8.986 19.986 8.991 17.984" transform="rotate(-90 4.991 15.986)"/>
    <polygon points="20.991 .001 18.991 2.001 18.991 5.998 14.996 5.998 12.996 7.998 18.991 7.998 20.991 8.001 20.996 5.998" transform="rotate(90 16.996 4)"/>
  </g>
</svg>
