<svg xmlns="http://www.w3.org/2000/svg" width="20" height="20" viewBox="0 0 20 20">
  <g fill="#339966" fill-rule="evenodd">
    <polygon points="19.995 12 17.995 14 17.995 17.998 14 17.998 12 19.998 17.995 19.998 19.995 20 20 17.998"/>
    <polygon points="7.995 0 5.995 2 5.995 5.998 2 5.998 0 7.998 5.995 7.998 7.995 8 8 5.998" transform="rotate(-180 4 4)"/>
    <polygon points="19.995 0 17.995 2 17.995 5.998 14 5.998 12 7.998 17.995 7.998 19.995 8 20 5.998" transform="rotate(-90 16 4)"/>
    <polygon points="7.995 12 5.995 14 5.995 17.998 2 17.998 0 19.998 5.995 19.998 7.995 20 8 17.998" transform="rotate(90 4 16)"/>
  </g>
</svg>
