<svg xmlns="http://www.w3.org/2000/svg" width="587" height="370" viewBox="0 0 587 370">
  <g fill="none" fill-rule="evenodd" stroke="#FFFFFF" transform="translate(1 1)" stroke-linecap="square" opacity=".396">
    <path d="M.928571429.464285714L584.071429.464285714M.928571429 45.9642857L584.071429 45.9642857M.928571429 91.4642857L584.071429 91.4642857M.928571429 136.964286L584.071429 136.964286M.928571429 184.321429L584.071429 184.321429M.928571429 229.821429L584.071429 229.821429M.928571429 277.178571L584.071429 277.178571M.928571429 322.678571L584.071429 322.678571M.928571429 368.178571L584.071429 368.178571M.464285714.928571429L.464285714 367.714286M45.0357143.928571429L45.0357143 367.714286M90.5357143.928571429L90.5357143 367.714286M135.107143.928571429L135.107143 367.714286M179.678571.928571429L179.678571 367.714286M224.25.928571429L224.25 367.714286M269.75.928571429L269.75 367.714286M315.25.928571429L315.25 367.714286M360.75.928571429L360.75 367.714286M405.321429.928571429L405.321429 367.714286M449.892857.928571429L449.892857 367.714286M494.464286.928571429L494.464286 367.714286M539.964286.928571429L539.964286 367.714286M584.535714.928571429L584.535714 367.714286"/>
  </g>
</svg>
