<svg xmlns="http://www.w3.org/2000/svg" width="1299" height="538" viewBox="0 0 1299 538">
  <g fill="none" fill-rule="evenodd" stroke="#FFFFFF" transform="translate(1 1)" stroke-linecap="square" opacity=".396">
    <path d="M0 1.5L1295 1.5M0 76.5L1295 76.5M0 151.5L1295 151.5M0 226.5L1295 226.5M0 305.5L1295 305.5M0 380.5L1295 380.5M0 459.5L1295 459.5M0 534.5L1295 534.5M2.5 0L2.5 536M74.5 0L74.5 536M146.5 0L146.5 536M218.5 0L218.5 536M290.5 0L290.5 536M362.5 0L362.5 536M434.5 0L434.5 536M506.5 0L506.5 536M578.5 0L578.5 536M650.5 0L650.5 536M721.5 0L721.5 536M793.5 0L793.5 536M865.5 0L865.5 536M937.5 0L937.5 536M1009.5 0L1009.5 536M1081.5 0L1081.5 536M1153.5 0L1153.5 536M1225.5 0L1225.5 536M1297.5 0L1297.5 536"/>
  </g>
</svg>
