<svg xmlns="http://www.w3.org/2000/svg" width="810" height="324" viewBox="0 0 810 324">
  <g fill="none" fill-rule="evenodd" stroke="#FFFFFF" transform="translate(0 1)" stroke-linecap="square" opacity=".396">
    <path d="M.936416185.468208092L809.063584.468208092M.936416185 45.416185L809.063584 45.416185M.936416185 91.300578L809.063584 91.300578M.936416185 136.248555L809.063584 136.248555M.936416185 184.00578L809.063584 184.00578M.936416185 228.953757L809.063584 228.953757M.936416185 276.710983L809.063584 276.710983M.936416185 321.65896L809.063584 321.65896M.5 0L.5 321.695829M44.5.736146061L44.5 320.959683M89.5.736146061L89.5 320.959683M134.5.736146061L134.5 320.959683M179.5.736146061L179.5 320.959683M224.5.736146061L224.5 320.959683M269.5.736146061L269.5 320.959683M314.5.736146061L314.5 320.959683M359.5.736146061L359.5 320.959683M404.5.736146061L404.5 320.959683M449.5.736146061L449.5 320.959683M494.5.736146061L494.5 320.959683M539.5.736146061L539.5 320.959683M584.5.736146061L584.5 320.959683M629.5.736146061L629.5 320.959683M674.5.736146061L674.5 320.959683M719.5.736146061L719.5 320.959683M764.5.736146061L764.5 320.959683M809.5.736146061L809.5 320.959683"/>
  </g>
</svg>
