<svg xmlns="http://www.w3.org/2000/svg" width="254" height="57" viewBox="0 0 254 57" xmlns:xlink="http://www.w3.org/1999/xlink">
  <defs>
    <polygon id="a" points="0 24.945 0 49.654 56.673 49.654 56.673 .236 0 .236"/>
  </defs>
  <g fill="none" fill-rule="evenodd">
    <polyline fill="#FFFFFE" points="75.973 23.807 79.96 10.869 85.2 10.869 89.155 23.807 93.623 10.869 99.057 10.869 91.212 33.364 87.483 33.364 82.564 17.724 77.677 33.364 73.948 33.364 66.103 10.869 71.537 10.869 75.973 23.807"/>
    <polygon fill="#FFFFFE" points="101.725 33.364 106.74 33.364 106.74 10.869 101.725 10.869"/>
    <path fill="#FFFFFE" d="M117.28515,10.8694979 L117.28515,20.1056266 L125.77253,10.8694979 L131.977455,10.8694979 L123.039963,20.8135145 C123.811414,21.8868174 125.236649,23.8870207 127.315669,26.8155436 C129.394452,29.7440664 130.948696,31.927332 131.977455,33.3643942 L126.12624,33.3643942 L119.535472,24.4823278 L117.28515,26.9924564 L117.28515,33.3643942 L112.269654,33.3643942 L112.269654,10.8694979 L117.28515,10.8694979 Z"/>
    <polygon fill="#FFFFFE" points="135.096 33.364 140.111 33.364 140.111 10.869 135.096 10.869"/>
    <polyline fill="#FFFFFE" points="165.766 19.205 159.69 31.498 156.7 31.498 150.656 19.205 150.656 33.364 145.641 33.364 145.641 10.869 152.424 10.869 158.211 23.227 164.03 10.869 170.781 10.869 170.781 33.364 165.766 33.364 165.766 19.205"/>
    <polyline fill="#FFFFFE" points="192.514 10.869 192.514 15.343 181.326 15.343 181.326 19.977 191.389 19.977 191.389 24.257 181.326 24.257 181.326 28.923 192.868 28.923 192.868 33.364 176.311 33.364 176.311 10.869 192.514 10.869"/>
    <path fill="#FFFFFE" d="M210.823308,27.1856888 C212.055503,26.0270041 212.671955,24.3430207 212.671955,22.133029 C212.671955,19.9235104 212.055503,18.222971 210.823308,17.0323568 C209.59064,15.8415062 207.699226,15.2461992 205.14883,15.2461992 L202.351758,15.2461992 L202.351758,28.923361 L205.534673,28.923361 C207.827762,28.923361 209.59064,28.3441369 210.823308,27.1856888 Z M214.504536,13.8141037 C216.647351,15.7771743 217.719349,18.5074979 217.719349,22.0043651 C217.719349,25.5017054 216.674523,28.2691618 214.584871,30.3072075 C212.495219,32.3457261 209.306869,33.3643942 205.020294,33.3643942 L197.336735,33.3643942 L197.336735,10.8694979 L205.277602,10.8694979 C209.285131,10.8694979 212.360776,11.8510332 214.504536,13.8141037 L214.504536,13.8141037 Z"/>
    <polygon fill="#FFFFFE" points="222.06 33.364 227.075 33.364 227.075 10.869 222.06 10.869"/>
    <path fill="#FFFFFE" d="M241.831628 17.563332L239.001005 24.0960996 244.629172 24.0960996 241.831628 17.563332zM248.6152 33.3643942L246.52413 28.5049668 237.106047 28.5049668 235.015213 33.3643942 229.678378 33.3643942 239.388502 10.8694979 244.241674 10.8694979 253.950381 33.3643942 248.6152 33.3643942 248.6152 33.3643942zM80.7793247 46.928029C80.7793247 44.6754647 79.4899498 43.5489461 76.9114363 43.5489461L75.2515758 43.5489461 75.2515758 50.2931577 77.0943163 50.2931577C78.2849265 50.2931577 79.1969637 50.0091037 79.8299553 49.4412324 80.462947 48.873361 80.7793247 48.0356266 80.7793247 46.928029zM81.0326158 43.3024979C81.979386 44.1615187 82.4531256 45.355917 82.4531256 46.8856929 82.4531256 48.4157054 81.9935628 49.6266598 81.0746735 50.5183195 80.1555479 51.4099793 78.7492149 51.8558091 76.8549656 51.8558091L73.5919516 51.8558091 73.5919516 42.0144398 76.9676707 42.0144398C78.7303126 42.0144398 80.085373 42.4437137 81.0326158 43.3024979L81.0326158 43.3024979z"/>
    <polyline fill="#FFFFFE" points="97.925 42.014 97.925 43.577 92.679 43.577 92.679 46.182 97.391 46.182 97.391 47.66 92.679 47.66 92.679 50.293 98.094 50.293 98.094 51.856 91.019 51.856 91.019 42.014 97.925 42.014"/>
    <path fill="#FFFFFE" d="M108.854004,49.6032448 C109.304115,50.1287801 109.913479,50.3915477 110.682567,50.3915477 C111.451183,50.3915477 112.060783,50.1287801 112.511131,49.6032448 C112.961007,49.077473 113.18618,48.3639087 113.18618,47.4630249 L113.18618,42.0144398 L114.846041,42.0144398 L114.846041,47.5335062 C114.846041,48.9509378 114.456653,50.0419793 113.678586,50.8068672 C112.900047,51.5719917 111.901295,51.9544357 110.682567,51.9544357 C109.463367,51.9544357 108.464852,51.5719917 107.686549,50.8068672 C106.908009,50.0419793 106.519094,48.9509378 106.519094,47.5335062 L106.519094,42.0144398 L108.178954,42.0144398 L108.178954,47.4630249 C108.178954,48.3639087 108.403892,49.077473 108.854004,49.6032448"/>
    <polyline fill="#FFFFFE" points="127.589 43.535 127.589 51.856 125.929 51.856 125.929 43.535 122.947 43.535 122.947 42.014 130.571 42.014 130.571 43.535 127.589 43.535"/>
    <path fill="#FFFFFE" d="M141.773821 43.3095934C141.290867 43.3095934 140.8951 43.4079834 140.585574 43.6052365 140.276048 43.8022531 140.121286 44.1004979 140.121286 44.4992614 140.121286 44.8982614 140.276048 45.2031286 140.585574 45.4145726 140.8951 45.6255436 141.553609 45.8533071 142.561576 46.0971535 143.569542 46.3417095 144.32918 46.6841826 144.840251 47.1250456 145.351323 47.5663817 145.60674 48.2160871 145.60674 49.0751079 145.60674 49.9338921 145.283274 50.6309004 144.636342 51.1658963 143.989174 51.7008921 143.140696 51.9686266 142.090435 51.9686266 140.552495 51.9686266 139.18822 51.4381245 137.997373 50.3773568L139.038182 49.1243029C140.031972 49.9882905 141.063567 50.4196929 142.132729 50.4196929 142.667193 50.4196929 143.09155 50.3047469 143.405801 50.0748548 143.719816 49.8449627 143.876941 49.5396224 143.876941 49.1597801 143.876941 48.7794647 143.729267 48.4838216 143.433682 48.2726141 143.138333 48.0614066 142.629388 47.8691203 141.907792 47.6952822 141.185487 47.5216805 140.636847 47.3622697 140.262108 47.2165768 139.886897 47.0713568 139.55398 46.8811992 139.263356 46.6465768 138.681637 46.2052407 138.39125 45.5295187 138.39125 44.6189378 138.39125 43.7085934 138.721805 43.0068548 139.382913 42.514195 140.044022 42.0212988 140.86202 41.7748506 141.83738 41.7748506 142.46541 41.7748506 143.089187 41.8782075 143.708002 42.0846846 144.326817 42.2913983 144.861516 42.5823112 145.311392 42.9576598L144.425345 44.2107137C144.134722 43.9479461 143.740845 43.7317718 143.24395 43.5629004 142.746819 43.394029 142.256776 43.3095934 141.773821 43.3095934M158.574917 50.3494481C159.146949 50.3494481 159.639118 50.2531867 160.051898 50.0606639 160.464441 49.8683776 160.89565 49.5609087 161.345762 49.1384938L162.414925 50.2366307C161.373879 51.3910581 160.110259 51.9686266 158.6243 51.9686266 157.137868 51.9686266 155.904727 51.4896846 154.925114 50.5322739 153.945029 49.5748631 153.455222 48.3639087 153.455222 46.8998838 153.455222 45.4353859 153.95448 44.215444 154.953232 43.239112 155.951747 42.2630166 157.212768 41.7748506 158.736532 41.7748506 160.260532 41.7748506 161.533367 42.3382282 162.555274 43.4645104L161.500761 44.6189378C161.031511 44.1683776 160.588487 43.8540498 160.171455 43.6757178 159.75395 43.4973859 159.264143 43.4079834 158.701563 43.4079834 157.707537 43.4079834 156.873235 43.7298797 156.19795 44.3724896 155.5229 45.0155726 155.185258 45.8369876 155.185258 46.8364979 155.185258 47.8362448 155.520301 48.6716141 156.190861 49.3426058 156.861185 50.013834 157.655792 50.3494481 158.574917 50.3494481"/>
    <polyline fill="#FFFFFE" points="170.868 51.856 170.868 42.014 172.528 42.014 172.528 46.28 177.408 46.28 177.408 42.014 179.068 42.014 179.068 51.856 177.408 51.856 177.408 47.829 172.528 47.829 172.528 51.856 170.868 51.856"/>
    <polyline fill="#FFFFFE" points="188.225 51.856 188.225 42.014 189.885 42.014 189.885 50.279 194.371 50.279 194.371 51.856 188.225 51.856"/>
    <path fill="#FFFFFE" d="M208.254009,48.0824564 L206.467503,44.0276515 L204.68147,48.0824564 L208.254009,48.0824564 Z M204.006184,49.6171992 L203.021609,51.8558091 L201.24928,51.8558091 L205.581457,42.0144398 L207.353786,42.0144398 L211.685963,51.8558091 L209.913633,51.8558091 L208.929059,49.6171992 L204.006184,49.6171992 L204.006184,49.6171992 Z"/>
    <polyline fill="#FFFFFE" points="226.848 42.014 228.508 42.014 228.508 51.856 226.708 51.856 221.138 44.675 221.138 51.856 219.478 51.856 219.478 42.014 221.138 42.014 226.848 49.364 226.848 42.014"/>
    <path fill="#FFFFFE" d="M244.851274 46.928029C244.851274 44.6754647 243.563553 43.5489461 240.983386 43.5489461L239.324707 43.5489461 239.324707 50.2931577 241.167684 50.2931577C242.35853 50.2931577 243.270567 50.0091037 243.903795 49.4412324 244.537023 48.873361 244.851274 48.0356266 244.851274 46.928029zM245.106456 43.3024979C246.051572 44.1615187 246.526493 45.355917 246.526493 46.8856929 246.526493 48.4157054 246.065749 49.6266598 245.146623 50.5183195 244.227498 51.4099793 242.821637 51.8558091 240.929042 51.8558091L237.666028 51.8558091 237.666028 42.0144398 241.040093 42.0144398C242.802735 42.0144398 244.158977 42.4437137 245.106456 43.3024979L245.106456 43.3024979zM30.7973228 45.9126722C39.2603665 44.7154357 45.7703274 37.4369378 45.7703274 28.6352863 45.7703274 23.288166 43.367133 18.5037137 39.5835963 15.3024896L30.7973228 24.0975187 30.7973228 45.9126722"/>
    <g transform="translate(0 7.332)">
      <mask id="b" fill="white">
        <use xlink:href="#a"/>
      </mask>
      <path fill="#FFFFFE" d="M25.8753935,38.580722 L25.8753935,16.7655685 L17.0893563,7.97053942 C13.3058195,11.1717635 10.9026251,15.9562158 10.9026251,21.3033361 C10.9026251,30.1049876 17.412586,37.3834855 25.8753935,38.580722" mask="url(#b)"/>
      <path fill="#FFFFFE" d="M43.4871628,6.13731535 C47.5341507,10.1883361 49.7629712,15.5744813 49.7629712,21.3033361 C49.7629712,27.0321909 47.5341507,32.4183361 43.4871628,36.4693568 C39.4404112,40.5201411 34.0596279,42.7511826 28.3364763,42.7511826 C22.6130884,42.7511826 17.2325414,40.5201411 13.1855535,36.4693568 C9.13856558,32.4183361 6.9099814,27.0321909 6.9099814,21.3033361 C6.9099814,15.5744813 9.13856558,10.1883361 13.1855535,6.13731535 C13.5328837,5.789639 13.8908465,5.45639004 14.2573153,5.13567635 L9.36232186,0.235804979 C9.0005786,0.562904564 8.64616,0.89946473 8.2995386,1.24643154 C5.69834233,3.85021992 3.65570977,6.88351867 2.22834791,10.2614191 C0.749713488,13.7606515 0,17.4755851 0,21.3033361 C0,25.1310871 0.749713488,28.8460207 2.22834791,32.3452531 C3.65570977,35.7231535 5.69834233,38.7562158 8.2995386,41.3602407 C10.9007349,43.964029 13.9307777,46.0086971 17.3055516,47.4374813 C20.8013005,48.9175892 24.5125358,49.6680498 28.3364763,49.6680498 C32.1604167,49.6680498 35.8716521,48.9175892 39.3674009,47.4374813 C42.7419386,46.0086971 45.7722177,43.964029 48.373414,41.3602407 C50.9746102,38.7562158 53.0172428,35.7231535 54.4446047,32.3452531 C55.9232391,28.8460207 56.6729526,25.1310871 56.6729526,21.3033361 C56.6729526,17.4755851 55.9232391,13.7606515 54.4446047,10.2614191 C53.0172428,6.88351867 50.9746102,3.85021992 48.373414,1.24643154 C48.0267926,0.89946473 47.6721377,0.562904564 47.3106307,0.235804979 L42.4156372,5.13567635 C42.782106,5.45639004 43.1398326,5.789639 43.4871628,6.13731535" mask="url(#b)"/>
    </g>
    <path fill="#FFFFFE" d="M28.3364763,0.113763485 C33.2139851,0.113763485 37.1678791,4.07159751 37.1678791,8.9539668 C37.1678791,13.8363361 33.2139851,17.7941701 28.3364763,17.7941701 C23.4589674,17.7941701 19.5050735,13.8363361 19.5050735,8.9539668 C19.5050735,4.07159751 23.4589674,0.113763485 28.3364763,0.113763485"/>
  </g>
</svg>
