<svg xmlns="http://www.w3.org/2000/svg" width="254" height="58" viewBox="0 0 254 58" xmlns:xlink="http://www.w3.org/1999/xlink">
  <defs>
    <polygon id="a" points="0 57.232 253.951 57.232 253.951 .114 0 .114"/>
  </defs>
  <g fill="none" fill-rule="evenodd">
    <polygon fill="#020203" points="75.748 23.754 79.704 10.901 84.905 10.901 88.829 23.754 93.264 10.901 98.657 10.901 90.872 33.249 87.17 33.249 82.289 17.711 77.439 33.249 73.738 33.249 65.953 10.901 71.345 10.901"/>
    <polygon fill="#020203" points="101.927 33.249 106.833 33.249 106.833 10.901 101.927 10.901"/>
    <path fill="#020203" d="M112.269583,10.9139303 L117.285079,10.9139303 L117.285079,20.1876127 L125.772459,10.9139303 L131.977384,10.9139303 L123.039892,20.8983789 C123.811343,21.9760458 125.236342,23.9843819 127.315598,26.9248119 C129.394381,29.865242 130.948625,32.0573846 131.977384,33.5002899 L126.126169,33.5002899 L119.535401,24.5821094 L117.285079,27.1024441 L117.285079,33.5002899 L112.269583,33.5002899 L112.269583,10.9139303 Z"/>
    <mask id="b" fill="white">
      <use xlink:href="#a"/>
    </mask>
    <polygon fill="#020203" points="135.096 33.5 140.111 33.5 140.111 10.914 135.096 10.914" mask="url(#b)"/>
    <polygon fill="#020203" points="165.766 19.283 159.69 31.626 156.7 31.626 150.656 19.283 150.656 33.5 145.64 33.5 145.64 10.914 152.424 10.914 158.211 23.322 164.03 10.914 170.781 10.914 170.781 33.5 165.766 33.5" mask="url(#b)"/>
    <polygon fill="#020203" points="192.514 10.914 192.514 15.405 181.326 15.405 181.326 20.058 191.389 20.058 191.389 24.356 181.326 24.356 181.326 29.041 192.868 29.041 192.868 33.5 176.311 33.5 176.311 10.914" mask="url(#b)"/>
    <path fill="#020203" d="M210.823119,27.2964147 C212.055551,26.1332563 212.671766,24.4421884 212.671766,22.223211 C212.671766,20.0047085 212.055551,18.2972548 210.823119,17.1017997 C209.590451,15.9061071 207.699037,15.3083796 205.148641,15.3083796 L202.351569,15.3083796 L202.351569,29.0411522 L205.534484,29.0411522 C207.827809,29.0411522 209.590451,28.459573 210.823119,27.2964147 M214.504347,13.8704613 C216.647162,15.8415136 217.719396,18.5831761 217.719396,22.094024 C217.719396,25.6055843 216.67457,28.3845305 214.584682,30.4306253 C212.49503,32.4774325 209.30668,33.5004799 205.020105,33.5004799 L197.336546,33.5004799 L197.336546,10.9138828 L205.277413,10.9138828 C209.284942,10.9138828 212.360823,11.899409 214.504347,13.8704613" mask="url(#b)"/>
    <polygon fill="#020203" points="222.06 33.5 227.075 33.5 227.075 10.914 222.06 10.914" mask="url(#b)"/>
    <path fill="#020203" d="M241.831061 17.6349337L239.001855 24.1945008 244.628132 24.1945008 241.831061 17.6349337zM248.614633 33.5004799L246.524745 28.6212943 237.105007 28.6212943 235.015119 33.5004799 229.678283 33.5004799 239.387699 10.9138828 244.242289 10.9138828 253.951468 33.5004799 248.614633 33.5004799zM80.779301 47.119074C80.779301 44.8573508 79.4896899 43.7262518 76.9111764 43.7262518L75.2515522 43.7262518 75.2515522 50.4978851 77.0940564 50.4978851C78.2849029 50.4978851 79.1969401 50.2126762 79.8296954 49.6424959 80.4626871 49.0723155 80.779301 48.2311749 80.779301 47.119074M81.0323559 43.4788016C81.9793624 44.3413151 82.4528657 45.5405698 82.4528657 47.0765657 82.4528657 48.6127991 81.9935392 49.8286772 81.0746499 50.7239624 80.1555243 51.6192476 78.748955 52.0668902 76.854942 52.0668902L73.591928 52.0668902 73.591928 42.1855063 76.9674108 42.1855063C78.7302889 42.1855063 80.0851131 42.6165256 81.0323559 43.4788016" mask="url(#b)"/>
    <polygon fill="#020203" points="97.911 42.185 97.911 43.754 92.665 43.754 92.665 46.37 97.376 46.37 97.376 47.854 92.665 47.854 92.665 50.498 98.08 50.498 98.08 52.067 91.005 52.067 91.005 42.185" mask="url(#b)"/>
    <path fill="#020203" d="M108.839732,49.8050721 C109.289844,50.3329816 109.899208,50.5965802 110.668296,50.5965802 C111.436912,50.5965802 112.046512,50.3329816 112.49686,49.8050721 C112.946735,49.2771625 113.171673,48.5609343 113.171673,47.6561501 L113.171673,42.1854113 L114.831533,42.1854113 L114.831533,47.726918 C114.831533,49.1501127 114.442382,50.2455904 113.664079,51.0138258 C112.885775,51.7818238 111.887024,52.1658228 110.668296,52.1658228 C109.449096,52.1658228 108.450581,51.7818238 107.672278,51.0138258 C106.893738,50.2455904 106.504823,49.1501127 106.504823,47.726918 L106.504823,42.1854113 L108.164683,42.1854113 L108.164683,47.6561501 C108.164683,48.5609343 108.389621,49.2771625 108.839732,49.8050721" mask="url(#b)"/>
    <polygon fill="#020203" points="127.575 43.712 127.575 52.067 125.915 52.067 125.915 43.712 122.933 43.712 122.933 42.185 130.557 42.185 130.557 43.712" mask="url(#b)"/>
    <path fill="#020203" d="M141.759479 43.4859734C141.276525 43.4859734 140.880521 43.5847634 140.571232 43.7828186 140.26147 43.9806362 140.106943 44.2800937 140.106943 44.6804785 140.106943 45.0811009 140.26147 45.3872077 140.571232 45.5992739 140.880521 45.8113401 141.539031 46.0400297 142.547234 46.2848676 143.5552 46.5301805 144.314601 46.8742835 144.825909 47.3169391 145.336981 47.7600697 145.592398 48.4124167 145.592398 49.2749302 145.592398 50.1372062 145.268932 50.8370485 144.621764 51.3742197 143.974832 51.9113908 143.126117 52.1799764 142.076093 52.1799764 140.538153 52.1799764 139.173877 51.6475548 137.983031 50.5824741L139.02384 49.3243253C140.01763 50.1915883 141.049224 50.6249823 142.118387 50.6249823 142.652614 50.6249823 143.076971 50.5095689 143.391223 50.278742 143.705237 50.0479152 143.862363 49.7413334 143.862363 49.3597092 143.862363 48.978085 143.714689 48.6812398 143.419103 48.4689361 143.123755 48.2571073 142.615046 48.0638017 141.893213 47.8894942 141.171144 47.7154241 140.622504 47.5551277 140.247529 47.4088424 139.872555 47.2627945 139.539401 47.0721012 139.249014 46.8362873 138.667295 46.3933942 138.376908 45.7149248 138.376908 44.8006415 138.376908 43.8865957 138.707463 43.1820038 139.368571 42.687341 140.02968 42.1924406 140.847678 41.9449904 141.823038 41.9449904 142.451068 41.9449904 143.074609 42.0487675 143.69366 42.2558467 144.312475 42.4634009 144.846938 42.7557341 145.297049 43.1326088L144.411003 44.3907576C144.120143 44.1269216 143.726266 43.9098683 143.229608 43.7403103 142.73224 43.5705149 142.242434 43.4859734 141.759479 43.4859734M158.560457 50.5543569C159.132489 50.5543569 159.624658 50.4577041 160.037437 50.2643985 160.449981 50.0713303 160.88119 49.7626113 161.331538 49.3384789L162.400464 50.4410808C161.359655 51.600202 160.095798 52.1801188 158.609839 52.1801188 157.123408 52.1801188 155.890267 51.6992296 154.910654 50.737926 153.930569 49.7768599 153.440762 48.5607444 153.440762 47.0907668 153.440762 45.6205518 153.94002 44.3954121 154.938771 43.4153479 155.937287 42.4352837 157.198308 41.9448954 158.722308 41.9448954 160.246072 41.9448954 161.518907 42.5105637 162.54105 43.6414253L161.486301 44.8005465C161.01705 44.3481544 160.574027 44.0325485 160.156995 43.8534915 159.739489 43.6744345 159.249683 43.5846685 158.687103 43.5846685 157.693076 43.5846685 156.858775 43.9078735 156.183489 44.5530963 155.50844 45.1987941 155.170797 46.0235488 155.170797 47.0271232 155.170797 48.030935 155.505841 48.8697009 156.176401 49.5434208 156.846725 50.2173782 157.641331 50.5543569 158.560457 50.5543569" mask="url(#b)"/>
    <polygon fill="#020203" points="170.854 52.067 170.854 42.186 172.513 42.186 172.513 46.469 177.394 46.469 177.394 42.186 179.054 42.186 179.054 52.067 177.394 52.067 177.394 48.024 172.513 48.024 172.513 52.067" mask="url(#b)"/>
    <polygon fill="#020203" points="188.196 52.067 188.196 42.186 189.856 42.186 189.856 50.484 194.343 50.484 194.343 52.067" mask="url(#b)"/>
    <path fill="#020203" d="M208.22542,48.2781715 L206.438913,44.2068798 L204.65288,48.2781715 L208.22542,48.2781715 Z M203.977594,49.8191544 L202.99302,52.0668664 L201.22069,52.0668664 L205.552867,42.1854825 L207.325196,42.1854825 L211.657373,52.0668664 L209.885044,52.0668664 L208.900469,49.8191544 L203.977594,49.8191544 Z" mask="url(#b)"/>
    <polygon fill="#020203" points="226.82 42.185 228.48 42.185 228.48 52.067 226.679 52.067 221.109 44.857 221.109 52.067 219.45 52.067 219.45 42.185 221.109 42.185 226.82 49.565" mask="url(#b)"/>
    <path fill="#020203" d="M244.823535 47.119074C244.823535 44.8573508 243.53416 43.7262518 240.955647 43.7262518L239.295786 43.7262518 239.295786 50.4978851 241.138291 50.4978851C242.329137 50.4978851 243.241411 50.2126762 243.874166 49.6424959 244.507158 49.0723155 244.823535 48.2311749 244.823535 47.119074M245.076826 43.4788016C246.023833 44.3413151 246.497336 45.5405698 246.497336 47.0765657 246.497336 48.6127991 246.03801 49.8286772 245.118884 50.7239624 244.199759 51.6192476 242.793189 52.0668902 240.899412 52.0668902L237.636162 52.0668902 237.636162 42.1855063 241.011881 42.1855063C242.774523 42.1855063 244.129347 42.6165256 245.076826 43.4788016M30.7972755 46.0995887C39.260083 44.8974843 45.7702802 37.5891548 45.7702802 28.7519537 45.7702802 23.3830922 43.3668495 18.578949 39.583549 15.3649464L30.7972755 24.1957357 30.7972755 46.0995887zM25.8753226 46.0995887L25.8753226 24.1957357 17.0890491 15.3649464C13.3057487 18.578949 10.902318 23.3830922 10.902318 28.7519537 10.902318 37.5891548 17.4125152 44.8974843 25.8753226 46.0995887" mask="url(#b)"/>
    <path fill="#020203" d="M43.4871155,13.524316 C47.5341034,17.591808 49.7629239,22.9996156 49.7629239,28.7520012 C49.7629239,34.5041492 47.5341034,39.9121943 43.4871155,43.9794489 C39.4401276,48.0469409 34.0595807,50.2870537 28.3361927,50.2870537 C22.6130411,50.2870537 17.2324941,48.0469409 13.1855062,43.9794489 C9.13851833,39.9121943 6.90969786,34.5041492 6.90969786,28.7520012 C6.90969786,22.9996156 9.13851833,17.591808 13.1855062,13.524316 C13.5328365,13.175226 13.8907993,12.8406221 14.2570318,12.5186044 L9.36203833,7.59881034 C9.00053135,7.92700242 8.64611274,8.2651685 8.29949135,8.61354606 C5.69805879,11.2279213 3.65542623,14.2733159 2.22806437,17.6651882 C0.749429953,21.1786483 -4.7255814e-05,24.9086867 -4.7255814e-05,28.7520012 C-4.7255814e-05,32.5953157 0.749429953,36.3253541 2.22806437,39.8385767 C3.65542623,43.230449 5.69805879,46.2758435 8.29949135,48.8902188 C10.9006876,51.5048316 13.9307304,53.5578132 17.3055044,54.9924068 C20.8010169,56.4785327 24.5124886,57.2318072 28.3361927,57.2318072 C32.1601332,57.2318072 35.8713686,56.4785327 39.3671174,54.9924068 C42.7418913,53.5578132 45.7719341,51.5048316 48.3731304,48.8902188 C50.9743267,46.2758435 53.0171955,43.230449 54.4445574,39.8385767 C55.9229555,36.3253541 56.672669,32.5953157 56.672669,28.7520012 C56.672669,24.9086867 55.9229555,21.1786483 54.4445574,17.6651882 C53.0171955,14.2733159 50.9743267,11.2279213 48.3731304,8.61354606 C48.026509,8.2651685 47.6720904,7.92700242 47.3103472,7.59881034 L42.4153537,12.5186044 C42.7818225,12.8406221 43.1397853,13.175226 43.4871155,13.524316" mask="url(#b)"/>
    <path fill="#020203" d="M28.3362873,0.114321034 C33.2137961,0.114321034 37.16769,4.08824745 37.16769,8.99046826 C37.16769,13.8929265 33.2137961,17.8666155 28.3362873,17.8666155 C23.4587784,17.8666155 19.5048845,13.8929265 19.5048845,8.99046826 C19.5048845,4.08824745 23.4587784,0.114321034 28.3362873,0.114321034" mask="url(#b)"/>
  </g>
</svg>
