<?xml version="1.0" encoding="utf-8"?>
<!-- Generator: Adobe Illustrator 16.0.0, SVG Export Plug-In . SVG Version: 6.00 Build 0)  -->
<!DOCTYPE svg PUBLIC "-//W3C//DTD SVG 1.1//EN" "http://www.w3.org/Graphics/SVG/1.1/DTD/svg11.dtd">
<svg version="1.1" id="Layer_1" xmlns="http://www.w3.org/2000/svg" xmlns:xlink="http://www.w3.org/1999/xlink" x="0px" y="0px"
	 width="1074.794px" height="240.519px" viewBox="0 0 1074.794 240.519" enable-background="new 0 0 1074.794 240.519"
	 xml:space="preserve">
<g>
	<path d="M321.54,100.175l16.872-54.699h22.179l16.736,54.699l18.913-54.699h22.996l-33.2,95.11h-15.784l-20.818-66.128
		l-20.682,66.128h-15.784l-33.2-95.11h22.995L321.54,100.175z"/>
	<path d="M430.529,45.477h21.227v95.11h-21.227V45.477z"/>
	<path d="M475.157,45.477h21.227v39.051l35.921-39.051h26.261l-37.827,42.044c3.265,4.537,9.297,12.994,18.097,25.376
		c8.797,12.382,15.375,21.613,19.73,27.689h-24.765l-27.894-37.554l-9.524,10.613v26.941h-21.227V45.477z"/>
	<path d="M571.763,45.477h21.226v95.11h-21.226V45.477z"/>
	<path d="M701.568,80.718l-25.716,51.977h-12.654l-25.581-51.977v59.869h-21.226v-95.11h28.71l24.491,52.25l24.628-52.25h28.574
		v95.11h-21.227V80.718z"/>
	<path d="M814.775,45.477V64.39h-47.352v19.594h42.589v18.097h-42.589v19.729h48.849v18.777h-70.074v-95.11H814.775z"/>
	<path d="M907.843,57.927c9.069,8.3,13.606,19.844,13.606,34.629c0,14.787-4.422,26.488-13.267,35.105
		c-8.844,8.619-22.338,12.926-40.479,12.926h-32.52v-95.11h33.608C885.753,45.477,898.771,49.626,907.843,57.927z M892.263,114.462
		c5.216-4.898,7.824-12.019,7.824-21.363c0-9.342-2.608-16.532-7.824-21.566c-5.217-5.035-13.222-7.552-24.016-7.552H856.41v57.828
		h13.471C879.586,121.81,887.046,119.36,892.263,114.462z"/>
	<path d="M939.819,45.477h21.226v95.11h-21.226V45.477z"/>
	<path d="M1052.208,140.587l-8.845-20.546h-39.867l-8.845,20.546h-22.587l41.093-95.11h20.546l41.092,95.11H1052.208z
		 M1023.498,73.778l-11.974,27.622h23.812L1023.498,73.778z"/>
</g>
<g>
	<path d="M342.952,182.605c4.008,3.632,6.012,8.682,6.012,15.15s-1.945,11.589-5.833,15.358c-3.89,3.771-9.843,5.655-17.859,5.655
		h-13.811v-41.61h14.287C333.209,177.159,338.943,178.975,342.952,182.605z M341.881,197.935c0-9.524-5.458-14.287-16.371-14.287
		h-7.024v28.515h7.798c5.04,0,8.899-1.2,11.578-3.602S341.881,202.617,341.881,197.935z"/>
	<path d="M414.387,177.159v6.607h-22.204v11.013h19.942v6.251h-19.942v11.132h22.918v6.607h-29.943v-41.61H414.387z"/>
	<path d="M460.641,209.245c1.905,2.223,4.484,3.333,7.739,3.333c3.253,0,5.833-1.11,7.739-3.333
		c1.905-2.223,2.857-5.239,2.857-9.049v-23.037H486v23.335c0,5.993-1.647,10.606-4.941,13.841
		c-3.294,3.234-7.521,4.852-12.679,4.852c-5.16,0-9.386-1.617-12.68-4.852c-3.295-3.234-4.941-7.848-4.941-13.841v-23.335h7.024
		v23.037C457.783,204.006,458.735,207.022,460.641,209.245z"/>
	<path d="M539.932,183.588v35.182h-7.024v-35.182h-12.62v-6.429h32.265v6.429H539.932z"/>
	<path d="M599.966,182.636c-2.044,0-3.72,0.416-5.029,1.25c-1.311,0.833-1.965,2.094-1.965,3.78s0.654,2.976,1.965,3.869
		c1.31,0.893,4.097,1.855,8.363,2.887c4.266,1.033,7.48,2.481,9.644,4.346c2.163,1.866,3.244,4.613,3.244,8.245
		c0,3.631-1.369,6.578-4.107,8.84s-6.33,3.394-10.774,3.394c-6.509,0-12.283-2.242-17.323-6.728l4.405-5.298
		c4.206,3.652,8.572,5.477,13.097,5.477c2.262,0,4.058-0.485,5.388-1.458c1.329-0.972,1.994-2.263,1.994-3.869
		c0-1.607-0.625-2.857-1.876-3.751c-1.25-0.893-3.403-1.706-6.458-2.44c-3.057-0.733-5.379-1.408-6.966-2.024
		c-1.587-0.614-2.996-1.418-4.226-2.41c-2.462-1.865-3.691-4.723-3.691-8.572s1.399-6.816,4.197-8.899
		c2.798-2.084,6.26-3.126,10.388-3.126c2.658,0,5.298,0.438,7.917,1.31c2.619,0.874,4.882,2.104,6.786,3.691l-3.75,5.298
		c-1.23-1.11-2.897-2.024-5-2.738C604.083,182.992,602.01,182.636,599.966,182.636z"/>
	<path d="M671.073,212.4c2.421,0,4.504-0.407,6.251-1.221c1.746-0.813,3.571-2.113,5.477-3.899l4.524,4.644
		c-4.405,4.881-9.754,7.322-16.043,7.322c-6.291,0-11.51-2.024-15.656-6.072c-4.147-4.048-6.221-9.168-6.221-15.358
		c0-6.191,2.113-11.35,6.34-15.478c4.227-4.127,9.563-6.191,16.013-6.191s11.837,2.382,16.162,7.144l-4.464,4.882
		c-1.985-1.905-3.86-3.234-5.626-3.988c-1.767-0.754-3.84-1.132-6.221-1.132c-4.207,0-7.738,1.36-10.596,4.078
		c-2.857,2.719-4.286,6.191-4.286,10.418s1.418,7.759,4.256,10.596C663.82,210.981,667.183,212.4,671.073,212.4z"/>
	<path d="M723.101,218.77v-41.61h7.024v18.037h20.656v-18.037h7.024v41.61h-7.024v-17.025h-20.656v17.025H723.101z"/>
	<path d="M796.5,218.77v-41.61h7.024v34.943h18.989v6.667H796.5z"/>
	<path d="M863.292,209.305l-4.167,9.465h-7.501l18.335-41.61h7.501l18.335,41.61h-7.501l-4.167-9.465H863.292z M881.269,202.815
		l-7.561-17.144l-7.56,17.144H881.269z"/>
	<path d="M959.966,177.159h7.024v41.61h-7.62l-23.573-30.359v30.359h-7.024v-41.61h7.024l24.169,31.073V177.159z"/>
	<path d="M1037.235,182.605c4.008,3.632,6.012,8.682,6.012,15.15s-1.944,11.589-5.834,15.358c-3.89,3.771-9.843,5.655-17.858,5.655
		h-13.811v-41.61h14.287C1027.491,177.159,1033.225,178.975,1037.235,182.605z M1036.163,197.935c0-9.524-5.457-14.287-16.37-14.287
		h-7.024v28.515h7.798c5.04,0,8.9-1.2,11.579-3.602S1036.163,202.617,1036.163,197.935z"/>
</g>
<path d="M130.343,193.642c35.817-5.062,63.37-35.837,63.37-73.05c0-22.608-10.172-42.837-26.184-56.372l-37.186,37.186V193.642z"/>
<path d="M109.512,193.642v-92.236L72.326,64.219c-16.012,13.535-26.184,33.764-26.184,56.372
	C46.142,157.805,73.695,188.58,109.512,193.642"/>
<path d="M184.05,56.469c17.128,17.128,26.561,39.9,26.561,64.123c0,24.222-9.433,46.995-26.561,64.122
	c-17.128,17.128-39.9,26.561-64.123,26.561c-24.222,0-46.994-9.433-64.122-26.561c-17.128-17.127-26.561-39.9-26.561-64.122
	c0-24.223,9.433-46.995,26.561-64.123c1.47-1.47,2.985-2.879,4.535-4.235L39.623,31.517c-1.53,1.382-3.03,2.806-4.497,4.273
	C24.116,46.798,15.471,59.623,9.43,73.906C3.172,88.701,0,104.408,0,120.592c0,16.184,3.172,31.891,9.43,46.685
	c6.041,14.283,14.686,27.107,25.696,38.116c11.009,11.01,23.833,19.655,38.116,25.696c14.794,6.258,30.502,9.43,46.685,9.43
	c16.184,0,31.891-3.172,46.686-9.43c14.283-6.041,27.107-14.687,38.116-25.696c11.009-11.009,19.655-23.833,25.696-38.116
	c6.257-14.794,9.43-30.501,9.43-46.685c0-16.184-3.173-31.891-9.43-46.686c-6.041-14.283-14.687-27.107-25.696-38.116
	c-1.467-1.467-2.967-2.891-4.498-4.273l-20.717,20.717C181.065,53.589,182.58,54.999,184.05,56.469"/>
<path d="M119.927,0c20.643,0,37.377,16.734,37.377,37.377s-16.734,37.377-37.377,37.377S82.55,58.021,82.55,37.377
	S99.284,0,119.927,0"/>
</svg>
